<?xml version="1.0" encoding="UTF-8" standalone="yes"?><svg xmlns="http://www.w3.org/2000/svg" xmlns:xlink="http://www.w3.org/1999/xlink" height="362.5px" style="width:303px;height:362px;" version="1.1" viewBox="0 0 303 362" width="303.125px"><defs><filter height="300%" id="f1" width="300%" x="-1" y="-1"><feGaussianBlur result="blurOut" stdDeviation="6.25"/><feColorMatrix in="blurOut" result="blurOut2" type="matrix" values="0 0 0 0 0 0 0 0 0 0 0 0 0 0 0 0 0 0 .4 0"/><feOffset dx="12.5" dy="12.5" in="blurOut2" result="blurOut3"/><feBlend in="SourceGraphic" in2="blurOut3" mode="normal"/></filter></defs><g><rect fill="#FEFECE" filter="url(#f1)" height="311.9385" style="stroke: #A80036; stroke-width: 4.6875;" width="256.25" x="18.75" y="25"/><ellipse cx="74.0625" cy="75" fill="#ADD1B2" rx="34.375" ry="34.375" style="stroke: #A80036; stroke-width: 3.125;"/><path d="M83.3536,92.6346 Q81.5378,93.5684 79.5404,94.0353 Q77.543,94.5023 75.3381,94.5023 Q67.5043,94.5023 63.3798,89.3402 Q59.2554,84.1782 59.2554,74.4247 Q59.2554,64.6454 63.3798,59.4833 Q67.5043,54.3213 75.3381,54.3213 Q77.543,54.3213 79.5663,54.7882 Q81.5897,55.2551 83.3536,56.189 L83.3536,64.6973 Q81.3821,62.8815 79.5274,62.0384 Q77.6727,61.1954 75.7013,61.1954 Q71.499,61.1954 69.359,64.5287 Q67.2189,67.8619 67.2189,74.4247 Q67.2189,80.9616 69.359,84.2949 Q71.499,87.6282 75.7013,87.6282 Q77.6727,87.6282 79.5274,86.7851 Q81.3821,85.9421 83.3536,84.1263 Z "/><text fill="#000000" font-family="sans-serif" font-size="37.5" lengthAdjust="spacingAndGlyphs" textLength="137.5" x="119.6875" y="89.1724">Dummy</text><line style="stroke: #A80036; stroke-width: 4.6875;" x1="21.875" x2="271.875" y1="125" y2="125"/><rect fill="none" height="18.75" style="stroke: #C82930; stroke-width: 3.125;" width="18.75" x="43.75" y="153.0548"/><text fill="#000000" font-family="sans-serif" font-size="34.375" lengthAdjust="spacingAndGlyphs" textLength="93.75" x="81.25" y="170.7336">field1</text><polygon fill="none" points="53.125,187.2894,65.625,199.7894,53.125,212.2894,40.625,199.7894" style="stroke: #B38D22; stroke-width: 3.125;"/><text fill="#000000" font-family="sans-serif" font-size="34.375" lengthAdjust="spacingAndGlyphs" textLength="93.75" x="81.25" y="211.2183">field2</text><line style="stroke: #A80036; stroke-width: 4.6875;" x1="21.875" x2="271.875" y1="230.9692" y2="230.9692"/><polygon fill="#4177AF" points="53.125,255.899,40.625,274.649,65.625,274.649" style="stroke: #1963A0; stroke-width: 3.125;"/><text fill="#000000" font-family="sans-serif" font-size="34.375" lengthAdjust="spacingAndGlyphs" textLength="175" x="81.25" y="276.7029">method1()</text><ellipse cx="53.125" cy="308.8837" fill="#84BE84" rx="9.375" ry="9.375" style="stroke: #038048; stroke-width: 3.125;"/><text fill="#000000" font-family="sans-serif" font-size="34.375" lengthAdjust="spacingAndGlyphs" textLength="175" x="81.25" y="317.1875">method2()</text></g></svg>